<svg xmlns="http://www.w3.org/2000/svg" viewBox="0 0 98 96" role="img" aria-label="GitHub">
  <path fill="currentColor" d="M49 0C21.9 0 0 22.3 0 49.8c0 22 14 40.7 33.4 47.3 2.4.5 3.3-1 3.3-2.3 0-1.1 0-4.1-.1-8-13.6 3-16.5-6.6-16.5-6.6-2.2-5.8-5.5-7.3-5.5-7.3-4.5-3.2.3-3.1.3-3.1 5 .4 7.6 5.2 7.6 5.2 4.4 7.7 11.6 5.5 14.4 4.2.4-3.3 1.7-5.5 3.1-6.8-10.9-1.3-22.4-5.6-22.4-24.7 0-5.5 1.9-10 5-13.5-.5-1.3-2.2-6.5.5-13.6 0 0 4.1-1.3 13.4 5.2 3.9-1.1 8.1-1.7 12.3-1.7s8.4.6 12.3 1.7c9.3-6.5 13.4-5.2 13.4-5.2 2.7 7.1 1 12.3.5 13.6 3.1 3.5 5 8 5 13.5 0 19.2-11.5 23.4-22.5 24.7 1.8 1.6 3.4 4.7 3.4 9.6 0 6.9-.1 12.5-.1 14.2 0 1.3.9 2.8 3.3 2.3C84 90.5 98 71.8 98 49.8 98 22.3 76.1 0 49 0z"/>
</svg>
